<svg width="24" height="24" viewBox="0 0 24 24" fill="none" xmlns="http://www.w3.org/2000/svg">
<path d="M10.1538 0C9.14423 0 8.30769 0.945652 8.30769 2.08696V3.13043H5.53846V2.08696H3.69231V3.13043H1.84615C0.836538 3.13043 0 4.07609 0 5.21739V21.913C0 23.0543 0.836538 24 1.84615 24H22.1538C23.1635 24 24 23.0543 24 21.913V5.21739C24 4.07609 23.1635 3.13043 22.1538 3.13043H20.3077V2.08696H18.4615V3.13043H15.6923V2.08696C15.6923 0.945652 14.8558 0 13.8462 0H10.1538ZM10.1538 2.08696H13.8462V3.13043H10.1538V2.08696ZM1.84615 5.21739H22.1538V21.913H20.3077V6.26087H18.4615V21.913H5.53846V6.26087H3.69231V21.913H1.84615V5.21739Z" fill="white"/>
</svg>
